<svg width="4" height="14" fill="none" xmlns="http://www.w3.org/2000/svg"><path d="M.86 10.12a.463.463 0 01-.34-.14.463.463 0 01-.14-.34V.48C.38.347.427.233.52.14A.463.463 0 01.86 0h1.62c.147 0 .26.047.34.14.093.08.14.193.14.34v9.16a.463.463 0 01-.14.34.424.424 0 01-.34.14H.86zM.74 14a.463.463 0 01-.34-.14.463.463 0 01-.14-.34v-1.86c0-.147.047-.267.14-.36a.463.463 0 01.34-.14H2.6c.147 0 .267.047.36.14.093.093.14.213.14.36v1.86a.463.463 0 01-.14.34.487.487 0 01-.36.14H.74z" fill="#FF1414"/></svg>