<svg width="25" height="47" fill="none" xmlns="http://www.w3.org/2000/svg"><path d="M24.127 3.3c-.905-.642-2.131-.387-2.74.569l-1.286 2.025c-.507-.251-1.07-.284-1.61.023-.032.019-.063.04-.094.06l.007-.022c.136-.408-.067-.854-.453-.997a.706.706 0 00-.734.155C17.043 2.52 14.998.473 12.5.473c-2.498 0-4.543 2.048-4.717 4.64a.706.706 0 00-.734-.155c-.386.143-.589.59-.453.997l.007.023c-.031-.02-.062-.042-.094-.06-.539-.308-1.103-.275-1.61-.024L3.612 3.869C3.005 2.912 1.778 2.658.874 3.3c-.905.643-1.146 1.938-.539 2.895l2.26 3.555c-.122.659-.125 1.33.085 1.94.06.172.209.293.383.308a.44.44 0 00.425-.238c.06-.11.121-.214.184-.315l2.933 4.616c-.044.398-.032.027-.032 6.702L3.886 34.34a1.89 1.89 0 00.316 1.548 1.68 1.68 0 001.347.693h1.03v7.284c0 1.44 1.104 2.608 2.467 2.608 1.362 0 2.467-1.168 2.467-2.608v-7.284h1.974v7.284c0 1.44 1.104 2.608 2.467 2.608s2.467-1.168 2.467-2.608v-7.284h1.018a1.68 1.68 0 001.348-.693 1.89 1.89 0 00.316-1.548l-2.688-11.578c0-6.677.012-6.299-.03-6.685l2.943-4.632c.063.1.124.204.184.315a.44.44 0 00.425.238.451.451 0 00.383-.31c.21-.608.207-1.28.086-1.939l2.259-3.555c.607-.956.366-2.251-.538-2.894zm-8.172 9.118a4.226 4.226 0 00-1.98-.492h-2.961c-.708 0-1.378.176-1.972.487L6.9 9.043a1.06 1.06 0 00.382-.396c.063-.123.113-.25.15-.38a.7.7 0 00.786.207.739.739 0 00.333-.253c.846 1.354 2.299 2.248 3.95 2.248 1.65 0 3.102-.894 3.948-2.248a.738.738 0 00.333.253.701.701 0 00.787-.207c.036.129.086.257.149.38.081.16.213.284.383.395l-2.146 3.376z" fill="#232323"/></svg>