<svg width="28" height="35" fill="none" xmlns="http://www.w3.org/2000/svg"><path d="M6.287 6.087v22.826h15.427V6.087H6.287zM18.04 19.782c-1.215 0-2.204-1.023-2.204-2.282 0-1.259.989-2.283 2.204-2.283 1.215 0 2.204 1.024 2.204 2.283s-.989 2.282-2.204 2.282z" fill="#fff"/><path d="M26.489 0H1.51C.903 0 .41.511.41 1.141V33.86c0 .629.493 1.14 1.101 1.14H26.49c.608 0 1.102-.511 1.102-1.141V1.14C27.59.511 27.097 0 26.489 0zm-2.572 30.054c0 .63-.493 1.142-1.102 1.142H5.186c-.61 0-1.103-.511-1.103-1.142V4.946c0-.63.494-1.142 1.102-1.142h17.631c.609 0 1.102.511 1.102 1.142v25.108z" fill="#fff"/></svg>