<svg width="18" height="18" fill="none" xmlns="http://www.w3.org/2000/svg"><path d="M5.033 3.13v11.74h7.934V3.13H5.033zm6.045 7.044c-.625 0-1.133-.527-1.133-1.174 0-.647.508-1.174 1.133-1.174s1.134.527 1.134 1.174c0 .647-.509 1.174-1.134 1.174z" fill="#fff"/><path d="M15.423 0H2.577a.577.577 0 00-.566.587v16.826c0 .324.253.587.566.587h12.846a.577.577 0 00.567-.587V.587A.577.577 0 0015.423 0zm-1.322 15.457a.577.577 0 01-.567.587H4.467a.577.577 0 01-.567-.588V2.543c0-.324.254-.586.567-.586h9.067c.313 0 .567.262.567.586v12.913z" fill="#fff"/></svg>