<svg width="22" height="22" fill="none" xmlns="http://www.w3.org/2000/svg"><g clip-path="url(#clip0)" fill="#fff"><path d="M20.565 4.286h-1.601c.211-.334.35-.71.39-1.106.127-1.268-.54-2.405-1.678-2.91a2.812 2.812 0 00-3.066.494l-2.022 1.832A2.147 2.147 0 009.41 2.6L7.385.764A2.814 2.814 0 004.319.27C3.182.775 2.514 1.912 2.64 3.18c.04.396.18.771.39 1.105H1.436A1.437 1.437 0 000 5.721v2.152c0 .396.321.718.717.718h20.566A.717.717 0 0022 7.873V5.721c0-.792-.642-1.435-1.435-1.435zM8.848 4.047v.24H5.473a1.416 1.416 0 01-1.37-1.76 1.4 1.4 0 01.774-.934 1.38 1.38 0 011.545.234l2.426 2.2v.02zM17.93 2.99c-.054.746-.727 1.297-1.475 1.297h-3.304v-.264l2.388-2.165c.368-.333.882-.489 1.358-.347.682.203 1.082.784 1.033 1.48zM1.435 10.024v10.522c0 .793.642 1.435 1.435 1.435h6.695V10.024h-8.13zm11 0v11.957h6.696c.792 0 1.434-.642 1.434-1.435V10.024h-8.13z"/></g><defs><clipPath id="clip0"><path fill="#fff" d="M0 0h22v22H0z"/></clipPath></defs></svg>