<svg width="12" height="12" fill="none" xmlns="http://www.w3.org/2000/svg"><g clip-path="url(#clip0)" fill="#fff"><path d="M11.217 2.338h-.873c.115-.182.191-.387.213-.603A1.54 1.54 0 009.64.148a1.534 1.534 0 00-1.67.269l-1.103 1a1.171 1.171 0 00-1.733 0l-1.105-1a1.535 1.535 0 00-1.672-.27 1.54 1.54 0 00-.915 1.588c.021.216.097.42.213.603H.783A.783.783 0 000 3.121v1.174c0 .216.175.39.391.39H11.61a.391.391 0 00.391-.39V3.12a.783.783 0 00-.783-.783zm-6.39-.13v.13H2.984a.772.772 0 01-.747-.96.768.768 0 01.422-.51.753.753 0 01.843.129l1.323 1.2v.01zM9.78 1.63c-.029.406-.396.707-.804.707H7.174v-.144l1.303-1.181a.783.783 0 01.74-.19c.372.112.59.428.563.808zM.782 5.468v5.74c0 .432.35.782.783.782h3.652V5.468H.782zm6 0v6.522h3.652c.433 0 .783-.35.783-.783V5.468H6.782z"/></g><defs><clipPath id="clip0"><path fill="#fff" d="M0 0h12v12H0z"/></clipPath></defs></svg>