<svg width="20" height="20" fill="none" xmlns="http://www.w3.org/2000/svg"><g clip-path="url(#clip0)" fill="#3D3D3D"><path d="M0 2.93v14.14A2.933 2.933 0 002.93 20h14.14A2.933 2.933 0 0020 17.07V2.93A2.933 2.933 0 0017.07 0H2.93A2.933 2.933 0 000 2.93zm15.234 7.03a5.28 5.28 0 01-5.273 5.274 5.28 5.28 0 01-5.274-5.273 5.28 5.28 0 015.274-5.274 5.28 5.28 0 015.273 5.274zM5.86 4.103A1.76 1.76 0 014.103 5.86a1.76 1.76 0 01-1.758-1.757c0-.97.788-1.758 1.758-1.758.969 0 1.757.788 1.757 1.758z"/><path d="M3.516 4.102A.586.586 0 104.688 4.1a.586.586 0 00-1.172 0zM5.86 9.96a4.107 4.107 0 004.1 4.102 4.107 4.107 0 004.102-4.101 4.107 4.107 0 00-4.101-4.102 4.107 4.107 0 00-4.102 4.102z"/></g><defs><clipPath id="clip0"><path fill="#fff" transform="rotate(-90 10 10)" d="M0 0h20v20H0z"/></clipPath></defs></svg>