<svg width="12" height="12" fill="none" xmlns="http://www.w3.org/2000/svg"><path d="M10.242 0H1.758A1.76 1.76 0 000 1.758v8.484C0 11.212.789 12 1.758 12h8.484A1.76 1.76 0 0012 10.242V1.758A1.76 1.76 0 0010.242 0zM6.023 9.14A3.168 3.168 0 012.86 5.978a3.168 3.168 0 013.164-3.165 3.168 3.168 0 013.165 3.165A3.168 3.168 0 016.022 9.14zM9.54 3.517a1.056 1.056 0 010-2.11 1.056 1.056 0 010 2.11z" fill="#3D3D3D"/><path d="M9.54 2.11a.352.352 0 100 .703.352.352 0 000-.704zM6.023 3.516a2.464 2.464 0 00-2.46 2.46 2.464 2.464 0 002.46 2.462 2.464 2.464 0 002.461-2.461 2.464 2.464 0 00-2.46-2.461z" fill="#3D3D3D"/></svg>