<svg width="16" height="16" fill="none" xmlns="http://www.w3.org/2000/svg"><path d="M13.656 0H2.344A2.347 2.347 0 000 2.344v11.312A2.347 2.347 0 002.344 16h11.312A2.347 2.347 0 0016 13.656V2.344A2.347 2.347 0 0013.656 0zM8.031 12.188a4.223 4.223 0 01-4.219-4.22 4.223 4.223 0 014.22-4.218 4.223 4.223 0 014.218 4.219 4.223 4.223 0 01-4.219 4.218zm4.688-7.5a1.408 1.408 0 010-2.813 1.407 1.407 0 010 2.812z" fill="#fff"/><path d="M12.719 2.813a.469.469 0 100 .938.469.469 0 000-.938zM8.031 4.688a3.285 3.285 0 00-3.281 3.28 3.285 3.285 0 003.281 3.282 3.285 3.285 0 003.281-3.281 3.285 3.285 0 00-3.28-3.282z" fill="#fff"/></svg>