<svg width="75" height="52" fill="none" xmlns="http://www.w3.org/2000/svg"><path d="M47.02 22.362v-7.506h-3.68v-1.213h8.72v1.213h-3.68v7.506h-1.36zm-13.587 0v-8.719h.714l5.537 6.126v-6.126h1.338v8.719h-.714l-5.537-6.105v6.105h-1.338zm-13.253 0v-8.719h1.133l3.569 5.102 3.575-5.102h1.133v8.719h-1.36v-6.27l-3.349 4.848-3.341-4.847v6.269h-1.36zm-10.435 0v-8.719h1.36v7.464h6.48v1.255h-7.84zm54.986 16.914v-11.27h.736l7.314 8.423v-8.422h1.401v11.27h-.714l-7.336-8.423v8.422h-1.4zm-4.289-3.052v-1.652h-3.074v-1.296h4.475v3.387c-.544.938-1.255 1.655-2.13 2.157-.874.498-1.867.75-2.975.75-1.687 0-3.08-.558-4.182-1.67-1.098-1.111-1.648-2.523-1.648-4.234 0-1.714.55-3.13 1.651-4.24 1.105-1.112 2.496-1.67 4.175-1.67 1.042 0 1.993.227 2.85.683a5.532 5.532 0 012.091 1.952l-1.17.836a3.851 3.851 0 00-1.534-1.582 4.431 4.431 0 00-2.233-.572c-1.265 0-2.314.436-3.144 1.304-.829.867-1.244 1.965-1.244 3.29 0 1.327.415 2.425 1.244 3.289.83.864 1.879 1.296 3.144 1.296.79 0 1.491-.17 2.108-.509.613-.341 1.146-.846 1.596-1.519zM47.02 39.277V27.944h1.422v11.333H47.02zM33.294 37.58l.816-1.21a9.71 9.71 0 002.488 1.415c.86.324 1.714.488 2.558.488 1.041 0 1.888-.22 2.537-.662.65-.443.975-1.01.975-1.704 0-.55-.233-1.004-.7-1.36-.467-.355-1.112-.567-1.934-.637a15.33 15.33 0 00-.858-.06c-1.854-.131-3.115-.348-3.791-.654-.523-.255-.923-.579-1.195-.976a2.338 2.338 0 01-.408-1.345c0-.906.404-1.652 1.216-2.24.809-.586 1.861-.879 3.154-.879.94 0 1.868.153 2.784.464.917.31 1.788.77 2.61 1.376l-.815 1.171a7.872 7.872 0 00-2.192-1.268 6.789 6.789 0 00-2.363-.425c-.85 0-1.55.167-2.105.498-.55.33-.825.745-.825 1.244 0 .195.045.376.132.54.087.164.227.32.408.463.463.345 1.463.568 3.004.662a27.45 27.45 0 011.645.133c1.142.129 2.048.495 2.717 1.101.666.606 1 1.349 1 2.234 0 1.052-.456 1.92-1.373 2.6-.916.679-2.118 1.02-3.603 1.02-1.122 0-2.167-.163-3.129-.488a9.409 9.409 0 01-2.753-1.502zm-10.338 1.696v-11.27h8.865v1.297h-7.464v3.304h4.516v1.296h-4.516v4.077h7.924v1.297h-9.325zm-8.378-11.269c1.774 0 3.203.523 4.287 1.572 1.083 1.048 1.627 2.411 1.627 4.094 0 1.694-.533 3.053-1.6 4.074-1.07 1.02-2.505 1.53-4.314 1.53H9.745v-11.27h4.833zm0 1.296h-3.432v8.677h3.432c1.387 0 2.481-.39 3.276-1.167.798-.78 1.195-1.833 1.195-3.16 0-1.308-.404-2.36-1.216-3.154-.808-.798-1.895-1.196-3.255-1.196z" fill="#fff" fill-opacity=".95"/><path fill-rule="evenodd" clip-rule="evenodd" d="M48.38 50.567v1.359H.166v-1.36H48.38zm0 0h-1.36v-5.645h1.36v5.645zm0-42.57h-1.36l-.045-6.318L48.38.994v7.004z" fill="#D69F67"/><path fill-rule="evenodd" clip-rule="evenodd" d="M.166 51.926l1.359-1.36V2.354H.165v49.573zM48.38.994l-1.36 1.359H.166V.993H48.38z" fill="#5B5B5B"/></svg>