<svg width="19" height="44" fill="none" xmlns="http://www.w3.org/2000/svg"><path d="M9.429 7.407a3.694 3.694 0 003.685-3.703A3.694 3.694 0 009.43 0a3.694 3.694 0 00-3.685 3.704A3.694 3.694 0 009.43 7.407zm1.284 1.766a6.677 6.677 0 00-2.819.035C1.767 9.929-.222 17.056.34 22.49c.243 2.35 3.929 2.374 3.683 0-.205-1.98-.117-4.969.93-7.093v7.745c0 .091.01.177.013.264-.002.042-.012.078-.012.12 0 6.146-.01 12.29-.263 18.43-.112 2.73 4.1 2.72 4.21 0 .199-4.813.248-9.628.26-14.444.2.013.399.013.598.002.013 4.816.061 9.631.257 14.442.112 2.72 4.324 2.73 4.211 0-.252-6.14-.261-12.284-.261-18.43 0-.19-.026-.364-.064-.53-.006-2.669-.107-5.34-.076-8.006 1.254 2.134 1.369 5.39 1.151 7.499-.247 2.372 3.44 2.348 3.683 0 .575-5.547-1.51-12.859-7.947-13.316z" fill="#fff"/></svg>