<svg width="12" height="24" fill="none" xmlns="http://www.w3.org/2000/svg"><path d="M5.961 4.04c1.11 0 2.01-.904 2.01-2.02S7.071 0 5.962 0c-1.11 0-2.01.904-2.01 2.02s.9 2.02 2.01 2.02zm.701.963a3.642 3.642 0 00-1.538.02c-3.342.393-4.427 4.28-4.12 7.244.133 1.282 2.143 1.295 2.008 0-.111-1.08-.063-2.71.508-3.869v4.225c0 .05.005.096.007.144-.001.023-.007.042-.007.065 0 3.353-.005 6.704-.143 10.053-.061 1.49 2.236 1.483 2.297 0 .108-2.625.135-5.252.141-7.879.109.008.218.008.327.001.006 2.627.033 5.254.14 7.878.06 1.483 2.358 1.49 2.297 0-.138-3.35-.143-6.7-.143-10.053a1.28 1.28 0 00-.035-.29c-.003-1.454-.058-2.911-.041-4.366.684 1.164.746 2.94.628 4.09-.135 1.294 1.876 1.281 2.008 0 .314-3.025-.823-7.014-4.334-7.263z" fill="#fff"/></svg>