<svg width="21" height="49" fill="none" xmlns="http://www.w3.org/2000/svg"><path d="M10.422 8.249c2.25 0 4.073-1.847 4.073-4.125C14.495 1.847 12.671 0 10.422 0c-2.25 0-4.073 1.847-4.073 4.124 0 2.278 1.823 4.125 4.073 4.125zm1.418 1.967a7.325 7.325 0 00-3.115.038c-6.771.803-8.97 8.74-8.35 14.792.27 2.616 4.343 2.644 4.071 0-.226-2.205-.129-5.534 1.029-7.9v8.626c0 .101.01.197.014.294-.003.047-.013.086-.013.134 0 6.844-.012 13.686-.291 20.524-.124 3.04 4.531 3.028 4.654 0 .219-5.36.274-10.722.286-16.086.22.015.441.015.662.002.013 5.364.067 10.726.284 16.084.123 3.028 4.779 3.04 4.654 0-.28-6.838-.29-13.68-.29-20.524 0-.212-.027-.405-.07-.591-.006-2.972-.118-5.946-.084-8.915 1.387 2.376 1.513 6.001 1.273 8.35-.273 2.642 3.8 2.616 4.07 0 .636-6.177-1.669-14.32-8.783-14.828z" fill="#232323"/></svg>