<svg width="28" height="28" fill="none" xmlns="http://www.w3.org/2000/svg"><g clip-path="url(#clip0)" fill="#232323"><path d="M12.1 1.025a3.5 3.5 0 11-4.95 4.95 3.5 3.5 0 014.95-4.95zM5.975 7.15a3.5 3.5 0 11-4.95 4.95 3.5 3.5 0 014.95-4.95zM20.85 1.025a3.5 3.5 0 11-4.95 4.95 3.5 3.5 0 014.95-4.95zm6.125 6.125a3.5 3.5 0 11-4.95 4.95 3.5 3.5 0 014.95-4.95zm-5.519 8.098c-.334-.23-.539-.527-.61-.885-.41-2.085-1.694-3.803-3.617-4.835a6.906 6.906 0 00-6.459 0c-1.922 1.032-3.206 2.75-3.616 4.835-.071.358-.276.656-.61.885-2.32 1.586-3.439 4.3-2.92 7.08.505 2.708 2.657 4.92 5.357 5.507.507.11 1.016.164 1.519.164.995 0 1.973-.213 2.884-.633a1.488 1.488 0 011.231 0 6.917 6.917 0 004.405.468c2.699-.585 4.851-2.798 5.356-5.506.519-2.78-.6-5.494-2.92-7.08z"/></g><defs><clipPath id="clip0"><path fill="#fff" d="M0 0h28v28H0z"/></clipPath></defs></svg>