<svg width="16" height="16" fill="none" xmlns="http://www.w3.org/2000/svg"><path d="M8.217 0C3.831 0 1.5 2.81 1.5 5.875c0 1.42.794 3.193 2.065 3.755.363.163.315-.036.627-1.23a.283.283 0 00-.068-.277C2.307 6.02 3.769 1.699 7.958 1.699c6.062 0 4.93 8.389 1.055 8.389-.999 0-1.743-.785-1.508-1.755.286-1.155.844-2.397.844-3.23 0-2.098-3.126-1.787-3.126.994 0 .86.304 1.44.304 1.44L4.334 12.36c-.316 1.285.043 3.366.074 3.545.02.099.13.13.192.049.1-.13 1.315-1.865 1.656-3.12l.633-2.31c.335.606 1.302 1.113 2.332 1.113 3.064 0 5.278-2.694 5.278-6.036C14.49 2.397 11.747 0 8.217 0z" fill="#fff"/></svg>