<svg width="25" height="25" fill="none" xmlns="http://www.w3.org/2000/svg"><path d="M12.84 0C5.987.001 2.344 4.392 2.344 9.18c0 2.22 1.24 4.989 3.227 5.867.567.255.492-.056.98-1.92a.443.443 0 00-.107-.435c-2.84-3.285-.554-10.037 5.99-10.037 9.473 0 7.703 13.107 1.649 13.107-1.56 0-2.723-1.225-2.355-2.741.445-1.805 1.318-3.746 1.318-5.047 0-3.28-4.885-2.793-4.885 1.552 0 1.343.475 2.25.475 2.25s-1.572 6.35-1.864 7.536c-.493 2.008.067 5.26.116 5.54.03.154.203.203.3.075.155-.203 2.055-2.913 2.587-4.872.194-.714.989-3.61.989-3.61.524.946 2.034 1.738 3.644 1.738 4.787 0 8.248-4.209 8.248-9.43C22.639 3.745 18.355 0 12.84 0z" fill="#fff"/></svg>