<svg width="32" height="32" fill="none" xmlns="http://www.w3.org/2000/svg"><path d="M1 10.467c0-.688.557-1.245 1.244-1.245h19.289c.688 0 1.245.557 1.245 1.245v19.289c0 .687-.557 1.244-1.245 1.244H2.244A1.244 1.244 0 011 29.756v-19.29z" fill="#fff"/><path d="M1 3l5 2.887V.113L1 3zm21.778 0l-5-2.887v5.774l5-2.887zM29 9.222l-2.887 5h5.774l-2.887-5zM29 31l2.887-5h-5.774L29 31zm-6.722-20.533v19.289h1v-19.29h-1zM21.533 30.5H2.244v1h19.29v-1zM1.5 29.756v-19.29h-1v19.29h1zm.744.744a.744.744 0 01-.744-.744h-1c0 .963.781 1.744 1.744 1.744v-1zm20.034-.744a.744.744 0 01-.745.744v1c.964 0 1.745-.781 1.745-1.744h-1zm-.745-20.034c.412 0 .745.334.745.745h1c0-.964-.781-1.745-1.745-1.745v1zm-19.289-1C1.281 8.722.5 9.503.5 10.467h1c0-.412.333-.745.744-.745v-1zM5.5 3.5h12.778v-1H5.5v1zm23 10.222V26.5h1V13.722h-1zm-26.256-4h9.645v-1H2.244v1zm9.645 0h9.644v-1H11.89v1z" fill="#fff"/></svg>