<svg width="18" height="18" fill="none" xmlns="http://www.w3.org/2000/svg"><path d="M.857 7.086a.61.61 0 01.61-.61h9.448a.61.61 0 01.61.61v9.447a.61.61 0 01-.61.61H1.467a.61.61 0 01-.61-.61V7.086z" fill="#fff"/><path d="M.857 2.572l4.286 2.474V.097L.857 2.572zm10.667 0L7.238.097v4.949l4.286-2.474zm3.905 3.904l-2.475 4.286h4.95l-2.475-4.286zm0 10.667l2.474-4.286h-4.948l2.474 4.286zM11.095 7.086v9.447h.858V7.086h-.857zm-.18 9.628H1.467v.858h9.448v-.858zm-9.629-.18V7.085H.429v9.447h.857zm.18.18a.181.181 0 01-.18-.18H.429c0 .573.465 1.038 1.038 1.038v-.858zm9.63-.18a.18.18 0 01-.181.18v.858c.573 0 1.038-.465 1.038-1.039h-.857zm-.181-9.63c.1 0 .18.082.18.182h.858c0-.574-.465-1.038-1.038-1.038v.857zm-9.448-.856c-.573 0-1.038.465-1.038 1.038h.857c0-.1.081-.181.18-.181v-.857zM4.715 3h2.952v-.857H4.715V3zM15 10.333v2.953h.857v-2.953H15zM1.467 6.905h4.724v-.857H1.467v.857zm4.724 0h4.724v-.857H6.19v.857z" fill="#fff"/></svg>