<svg width="12" height="14" fill="none" xmlns="http://www.w3.org/2000/svg"><path d="M7.48 8.875c2.66 0 4.52-1.741 4.52-4.245C12 2.125 10.14.438 7.48.438H2.375C2.168.438 2 .595 2 .79v6.053H.375c-.207 0-.375.158-.375.352v1.329c0 .194.168.351.375.351H2v.938H.375c-.207 0-.375.157-.375.351v1.172c0 .195.168.352.375.352H2v1.523c0 .195.168.352.375.352h1.83c.207 0 .375-.157.375-.352v-1.523h5.045c.207 0 .375-.157.375-.352v-1.171c0-.195-.168-.352-.375-.352H4.58v-.938h2.9zm-2.9-6.423h2.46c1.46 0 2.34.853 2.34 2.178 0 1.342-.88 2.213-2.38 2.213H4.58v-4.39z" fill="#fff"/></svg>