<svg width="19" height="26" fill="none" xmlns="http://www.w3.org/2000/svg"><path d="M11.843 16.125c4.212 0 7.157-2.903 7.157-7.077 0-4.173-2.945-6.986-7.157-6.986H3.76a.59.59 0 00-.593.586v10.09H.594a.59.59 0 00-.594.586v2.215a.59.59 0 00.594.586h2.573v1.563H.594a.59.59 0 00-.594.585v1.954a.59.59 0 00.594.585h2.573v2.54a.59.59 0 00.593.585h2.898a.59.59 0 00.594-.585v-2.54h7.988a.59.59 0 00.593-.585v-1.954a.59.59 0 00-.593-.585H7.252v-1.563h4.591zM7.252 5.419h3.895c2.311 0 3.705 1.422 3.705 3.63 0 2.237-1.394 3.689-3.769 3.689H7.252V5.419z" fill="#fff"/></svg>