<svg width="28" height="28" fill="none" xmlns="http://www.w3.org/2000/svg"><g clip-path="url(#clip0)" fill="#fff"><path d="M14 5.36c-4.764 0-8.64 3.876-8.64 8.64 0 4.764 3.876 8.64 8.64 8.64 4.764 0 8.64-3.876 8.64-8.64 0-4.764-3.876-8.64-8.64-8.64zm.82 9.46H9.242v-1.64h3.938V6.8h1.64v8.02z"/><path d="M23.9 4.1A13.908 13.908 0 0014 0a13.91 13.91 0 00-9.9 4.1A13.909 13.909 0 000 14a13.91 13.91 0 004.1 9.9A13.909 13.909 0 0014 28a13.91 13.91 0 009.9-4.1A13.909 13.909 0 0028 14a13.91 13.91 0 00-4.1-9.9zM14 24.281C8.33 24.281 3.719 19.67 3.719 14 3.719 8.33 8.33 3.719 14 3.719c5.67 0 10.281 4.612 10.281 10.281 0 5.67-4.612 10.281-10.281 10.281z"/></g><defs><clipPath id="clip0"><path fill="#fff" d="M0 0h28v28H0z"/></clipPath></defs></svg>