<svg width="18" height="18" fill="none" xmlns="http://www.w3.org/2000/svg"><path d="M9 3.446A5.561 5.561 0 003.445 9 5.561 5.561 0 009 14.555 5.561 5.561 0 0014.555 9 5.561 5.561 0 009 3.446zm.527 6.082H5.941V8.473h2.532V4.372h1.054v5.156z" fill="#fff"/><path d="M15.364 2.636A8.941 8.941 0 009 0a8.941 8.941 0 00-6.364 2.636A8.941 8.941 0 000 9a8.94 8.94 0 002.636 6.364A8.941 8.941 0 009 18a8.942 8.942 0 006.364-2.636A8.942 8.942 0 0018 9a8.941 8.941 0 00-2.636-6.364zM9 15.609A6.617 6.617 0 012.39 9 6.617 6.617 0 019 2.39 6.617 6.617 0 0115.61 9 6.617 6.617 0 019 15.61z" fill="#fff"/></svg>