<svg width="20" height="20" fill="none" xmlns="http://www.w3.org/2000/svg"><path d="M0 10c0 5.493 4.507 10 10 10a9.933 9.933 0 005.121-1.416L20 20l-1.416-4.879A9.933 9.933 0 0020 10c0-5.493-4.507-10-10-10S0 4.507 0 10zm14.225-6.252l.466.465c.658.658.606 2.172.418 3.145-.625 3.234-4.28 7.005-7.445 7.733-1.568.36-2.931.16-3.452-.36l-.465-.464a.659.659 0 010-.931l1.862-1.861a.652.652 0 01.465-.192.65.65 0 01.464.192l.466.465a1.319 1.319 0 001.862 0l3.033-3.074a1.315 1.315 0 000-1.861l-.465-.465a.688.688 0 010-.931l1.86-1.861a.657.657 0 01.931 0z" fill="#3D3D3D"/></svg>