<svg width="25" height="25" fill="none" xmlns="http://www.w3.org/2000/svg"><path d="M12.5 0C5.634 0 0 5.634 0 12.5c0 2.266.61 4.472 1.77 6.402L0 25l6.098-1.77A12.417 12.417 0 0012.5 25C19.366 25 25 19.366 25 12.5S19.366 0 12.5 0zm7.815 17.782l-.581.581c-.823.823-2.716.758-3.931.523-4.043-.78-8.757-5.35-9.666-9.306-.45-1.96-.202-3.664.448-4.315l.582-.581a.823.823 0 011.163 0l2.326 2.327a.81.81 0 01.24.581c0 .22-.084.426-.24.581l-.58.582a1.648 1.648 0 000 2.327l3.841 3.791a1.644 1.644 0 002.327 0l.582-.581c.3-.302.86-.303 1.163 0l2.326 2.326a.822.822 0 010 1.164z" fill="#fff"/></svg>