<svg width="12" height="12" fill="none" xmlns="http://www.w3.org/2000/svg"><path d="M6 0C2.704 0 0 2.704 0 6a5.96 5.96 0 00.85 3.073L0 12l2.927-.85A5.96 5.96 0 006 12c3.296 0 6-2.704 6-6S9.296 0 6 0zm3.751 8.535l-.279.28c-.395.394-1.303.363-1.887.25-1.94-.375-4.203-2.568-4.64-4.467-.215-.94-.096-1.758.216-2.07l.28-.28a.395.395 0 01.557 0l1.117 1.117a.391.391 0 01.115.28.39.39 0 01-.115.278l-.279.28a.791.791 0 000 1.116L6.68 7.14a.79.79 0 001.117 0l.28-.279a.413.413 0 01.558 0L9.75 7.977a.394.394 0 010 .558z" fill="#3D3D3D"/></svg>