<svg width="16" height="16" fill="none" xmlns="http://www.w3.org/2000/svg"><path d="M8 0C3.606 0 0 3.606 0 8a7.95 7.95 0 001.132 4.097L0 16l3.903-1.132A7.947 7.947 0 008 16c4.394 0 8-3.606 8-8s-3.606-8-8-8zm5.002 11.38l-.373.372c-.526.527-1.737.485-2.515.335-2.588-.5-5.605-3.424-6.186-5.956-.288-1.254-.13-2.345.287-2.761l.372-.372a.527.527 0 01.744 0l1.49 1.489c.099.1.153.23.153.372a.52.52 0 01-.154.372l-.372.372a1.055 1.055 0 000 1.49l2.459 2.426a1.052 1.052 0 001.49 0l.371-.372a.55.55 0 01.745 0l1.489 1.489a.526.526 0 010 .744z" fill="#fff"/><path stroke="#000" d="M.5.5h15v15H.5z"/></svg>